solid OpenSCAD_Model
  facet normal -0 0 1
    outer loop
      vertex 0 300 100
      vertex 100 0 100
      vertex 100 300 100
    endloop
  endfacet
  facet normal 0 0 1
    outer loop
      vertex 100 0 100
      vertex 0 300 100
      vertex 0 0 100
    endloop
  endfacet
  facet normal 0 0 -1
    outer loop
      vertex 0 0 0
      vertex 100 300 0
      vertex 100 0 0
    endloop
  endfacet
  facet normal -0 0 -1
    outer loop
      vertex 100 300 0
      vertex 0 0 0
      vertex 0 300 0
    endloop
  endfacet
  facet normal 0 -1 0
    outer loop
      vertex 0 0 0
      vertex 100 0 100
      vertex 0 0 100
    endloop
  endfacet
  facet normal 0 -1 -0
    outer loop
      vertex 100 0 100
      vertex 0 0 0
      vertex 100 0 0
    endloop
  endfacet
  facet normal 1 -0 0
    outer loop
      vertex 100 0 100
      vertex 100 300 0
      vertex 100 300 100
    endloop
  endfacet
  facet normal 1 0 0
    outer loop
      vertex 100 300 0
      vertex 100 0 100
      vertex 100 0 0
    endloop
  endfacet
  facet normal 0 1 -0
    outer loop
      vertex 100 300 0
      vertex 0 300 100
      vertex 100 300 100
    endloop
  endfacet
  facet normal 0 1 0
    outer loop
      vertex 0 300 100
      vertex 100 300 0
      vertex 0 300 0
    endloop
  endfacet
  facet normal -1 0 0
    outer loop
      vertex 0 0 0
      vertex 0 300 100
      vertex 0 300 0
    endloop
  endfacet
  facet normal -1 -0 0
    outer loop
      vertex 0 300 100
      vertex 0 0 0
      vertex 0 0 100
    endloop
  endfacet
endsolid OpenSCAD_Model
